<?xml version="1.0" encoding="UTF-8" standalone="no"?>
<!-- Created with Inkscape (http://www.inkscape.org/) -->

<svg
   xmlns:dc="http://purl.org/dc/elements/1.1/"
   xmlns:cc="http://creativecommons.org/ns#"
   xmlns:rdf="http://www.w3.org/1999/02/22-rdf-syntax-ns#"
   xmlns:svg="http://www.w3.org/2000/svg"
   xmlns="http://www.w3.org/2000/svg"
   xmlns:sodipodi="http://sodipodi.sourceforge.net/DTD/sodipodi-0.dtd"
   xmlns:inkscape="http://www.inkscape.org/namespaces/inkscape"
   width="210mm"
   height="297mm"
   viewBox="0 0 210 297"
   version="1.1"
   id="svg4599"
   inkscape:version="0.92.1 r15371"
   sodipodi:docname="drop.svg">
  <defs
     id="defs4593" />
  <sodipodi:namedview
     id="base"
     pagecolor="#ffffff"
     bordercolor="#666666"
     borderopacity="1.0"
     inkscape:pageopacity="0.0"
     inkscape:pageshadow="2"
     inkscape:zoom="2.8284271"
     inkscape:cx="403.1328"
     inkscape:cy="610.40412"
     inkscape:document-units="mm"
     inkscape:current-layer="layer1"
     showgrid="false"
     inkscape:snap-nodes="false"
     inkscape:window-width="1920"
     inkscape:window-height="1017"
     inkscape:window-x="1912"
     inkscape:window-y="-8"
     inkscape:window-maximized="1" />
  <metadata
     id="metadata4596">
    <rdf:RDF>
      <cc:Work
         rdf:about="">
        <dc:format>image/svg+xml</dc:format>
        <dc:type
           rdf:resource="http://purl.org/dc/dcmitype/StillImage" />
        <dc:title></dc:title>
      </cc:Work>
    </rdf:RDF>
  </metadata>
  <g
     inkscape:label="Layer 1"
     inkscape:groupmode="layer"
     id="layer1">
    <g
       id="g5259"
       transform="translate(-14.873549,10.757598)">
      <path
         style="opacity:0.81400003;fill:#0808ff;fill-opacity:1;fill-rule:nonzero;stroke:#0c0d62;stroke-width:1.61390483;stroke-linecap:round;stroke-linejoin:miter;stroke-miterlimit:4;stroke-dasharray:none;stroke-dashoffset:0;stroke-opacity:1"
         d="m 65.856041,141.16785 c 0.131898,-5.84943 5.453512,-8.66026 8.982301,-15.86436 3.118945,7.11574 8.963958,10.52144 8.982301,15.86436 0.01834,5.34292 -4.748005,8.9823 -8.982301,8.9823 -4.234297,0 -9.114199,-3.13287 -8.982301,-8.9823 z"
         id="path5183"
         inkscape:connector-curvature="0"
         sodipodi:nodetypes="zczsz" />
      <path
         id="path4614"
         transform="scale(0.26458333)"
         d="m 263.4043,527.09766 c -0.55945,0.0136 -1.13437,0.0519 -1.7168,0.10351 0.57941,-0.043 1.16415,-0.0901 1.7168,-0.10351 z m 3.19922,0.12304 c 1.35296,0.13571 2.64831,0.37226 3.90234,0.68555 -1.25387,-0.31333 -2.54938,-0.54984 -3.90234,-0.68555 z m 3.90234,0.68555 c 1.25403,0.31329 2.46745,0.70307 3.65625,1.14258 -1.18858,-0.43957 -2.40238,-0.82925 -3.65625,-1.14258 z m -5.07813,2.56836 c -4.26178,0.11872 -8.69406,1.11487 -13.48242,3.70117 -0.19871,10.27757 3.75686,17.49111 9.57813,22.43945 5.9595,5.06593 14.02335,7.61329 21.33203,7.61329 7.28245,0 15.37975,-2.637 21.36328,-7.75977 5.98352,-5.12277 9.98824,-12.5678 9.5332,-23.00977 -0.002,-0.0521 -0.011,-0.10957 -0.0137,-0.1621 -6.83391,2.8662 -12.3945,3.72703 -17.19922,3.43359 -4.61505,-0.28174 -8.518,-1.62235 -12.19531,-3.20703 l -2.92773,-0.66797 c -5.31119,-1.23554 -10.50885,-2.53351 -15.98829,-2.38086 z"
         style="opacity:0.81400003;fill:#4fbcff;fill-opacity:1;fill-rule:nonzero;stroke:none;stroke-width:6.07571268;stroke-linecap:round;stroke-linejoin:miter;stroke-miterlimit:4;stroke-dasharray:none;stroke-dashoffset:0;stroke-opacity:1"
         inkscape:connector-curvature="0" />
      <path
         sodipodi:nodetypes="zczsz"
         inkscape:connector-curvature="0"
         id="rect4592"
         d="m 65.856041,141.16785 c 0.131898,-5.84943 5.453512,-8.66026 8.982301,-15.86436 3.118945,7.11574 8.963958,10.52144 8.982301,15.86436 0.01834,5.34292 -4.748005,8.9823 -8.982301,8.9823 -4.234297,0 -9.114199,-3.13287 -8.982301,-8.9823 z"
         style="opacity:0.81400003;fill:none;fill-opacity:1;fill-rule:nonzero;stroke:#0c0d62;stroke-width:1.61390483;stroke-linecap:round;stroke-linejoin:miter;stroke-miterlimit:4;stroke-dasharray:none;stroke-dashoffset:0;stroke-opacity:1" />
      <circle
         transform="rotate(175.10678)"
         style="opacity:1;fill:#ffffff;fill-opacity:0.54773865;fill-rule:nonzero;stroke:none;stroke-width:0.43088299;stroke-linecap:round;stroke-linejoin:round;stroke-miterlimit:4;stroke-dasharray:none;stroke-dashoffset:0;stroke-opacity:1"
         id="circle4648-3"
         cx="-60.328423"
         cy="-148.56006"
         r="0.96728849" />
      <circle
         transform="rotate(175.10678)"
         r="0.40144837"
         cy="-151.19528"
         cx="-60.195969"
         id="circle4650-3"
         style="opacity:1;fill:#ffffff;fill-opacity:0.54773865;fill-rule:nonzero;stroke:none;stroke-width:0.17882699;stroke-linecap:round;stroke-linejoin:round;stroke-miterlimit:4;stroke-dasharray:none;stroke-dashoffset:0;stroke-opacity:1" />
      <circle
         transform="rotate(175.10678)"
         style="opacity:1;fill:#ffffff;fill-opacity:0.54773865;fill-rule:nonzero;stroke:none;stroke-width:0.3481147;stroke-linecap:round;stroke-linejoin:round;stroke-miterlimit:4;stroke-dasharray:none;stroke-dashoffset:0;stroke-opacity:1"
         id="circle4652-9"
         cx="-58.352505"
         cy="-150.0988"
         r="0.78148198" />
      <g
         style="fill:#000609;fill-opacity:0.26111115"
         id="g5248">
        <path
           style="opacity:0.81400003;fill:#000609;fill-opacity:0.26111115;fill-rule:nonzero;stroke:none;stroke-width:6.07571268;stroke-linecap:round;stroke-linejoin:miter;stroke-miterlimit:4;stroke-dasharray:none;stroke-dashoffset:0;stroke-opacity:1"
           d="m 263.4043,527.09766 c -3.22672,0.0784 -6.91037,0.61256 -11.04152,2.17149 -0.15973,1.48445 -0.35923,2.90801 -0.4077,4.17812 -0.009,0.24754 -0.005,0.48444 -0.01,0.72851 10.94482,-5.91155 20.0286,-3.51682 29.47071,-1.32031 l 4.49214,1.02509 c -0.48865,-0.22216 -4.28534,-1.57196 -4.76949,-1.79658 -4.63766,-2.15157 -9.12329,-4.32046 -14.53515,-4.86328 -0.60101,-0.0601 -1.21166,-0.101 -1.8379,-0.11914 -0.44644,-0.0129 -0.90036,-0.0151 -1.36132,-0.004 z"
           id="path5199"
           inkscape:connector-curvature="0"
           sodipodi:nodetypes="ccccccccccc"
           transform="scale(0.26458333)" />
        <path
           style="color:#000000;font-style:normal;font-variant:normal;font-weight:normal;font-stretch:normal;font-size:medium;line-height:normal;font-family:sans-serif;font-variant-ligatures:normal;font-variant-position:normal;font-variant-caps:normal;font-variant-numeric:normal;font-variant-alternates:normal;font-feature-settings:normal;text-indent:0;text-align:start;text-decoration:none;text-decoration-line:none;text-decoration-style:solid;text-decoration-color:#000000;letter-spacing:normal;word-spacing:normal;text-transform:none;writing-mode:lr-tb;direction:ltr;text-orientation:mixed;dominant-baseline:auto;baseline-shift:baseline;text-anchor:start;white-space:normal;shape-padding:0;clip-rule:nonzero;display:inline;overflow:visible;visibility:visible;opacity:1;isolation:auto;mix-blend-mode:normal;color-interpolation:sRGB;color-interpolation-filters:linearRGB;solid-color:#000000;solid-opacity:1;vector-effect:none;fill:#000609;fill-opacity:0.26111115;fill-rule:evenodd;stroke:none;stroke-width:0.10200001;stroke-linecap:butt;stroke-linejoin:miter;stroke-miterlimit:4;stroke-dasharray:none;stroke-dashoffset:0;stroke-opacity:1;color-rendering:auto;image-rendering:auto;shape-rendering:auto;text-rendering:auto;enable-background:accumulate"
           d="m 313.55078,530.3418 c -11.31415,6.18322 -20.48097,5.10201 -29.16211,3.20117 3.66411,1.57612 7.55429,2.90692 12.15039,3.1875 4.7771,0.29175 10.42722,-0.60147 17.20732,-3.42829 0.01,-0.33414 -0.009,-0.61441 -0.0101,-0.95257 -0.002,-0.67516 -0.13044,-1.34973 -0.18554,-2.00781 z"
           id="path5232"
           transform="scale(0.26458333)"
           inkscape:connector-curvature="0"
           sodipodi:nodetypes="cccccc" />
      </g>
    </g>
    <g
       id="g5297"
       transform="translate(33.956593,9.9156994)">
      <path
         sodipodi:nodetypes="zczsz"
         inkscape:connector-curvature="0"
         id="path5279"
         d="m 65.856041,141.16785 c 0.131898,-5.84943 5.453512,-8.66026 8.982301,-15.86436 3.118945,7.11574 8.963958,10.52144 8.982301,15.86436 0.01834,5.34292 -4.748005,8.9823 -8.982301,8.9823 -4.234297,0 -9.114199,-3.13287 -8.982301,-8.9823 z"
         style="opacity:0.81400003;fill:#0808ff;fill-opacity:1;fill-rule:nonzero;stroke:#0c0d62;stroke-width:1.61390483;stroke-linecap:round;stroke-linejoin:miter;stroke-miterlimit:4;stroke-dasharray:none;stroke-dashoffset:0;stroke-opacity:1" />
      <path
         style="opacity:0.81400003;fill:#4fbcff;fill-opacity:1;fill-rule:nonzero;stroke:none;stroke-width:6.07571268;stroke-linecap:round;stroke-linejoin:miter;stroke-miterlimit:4;stroke-dasharray:none;stroke-dashoffset:0;stroke-opacity:1"
         d="m 263.4043,527.09766 c -0.55945,0.0136 -1.13437,0.0519 -1.7168,0.10351 0.57941,-0.043 1.16415,-0.0901 1.7168,-0.10351 z m 3.19922,0.12304 c 1.35296,0.13571 2.64831,0.37226 3.90234,0.68555 -1.25387,-0.31333 -2.54938,-0.54984 -3.90234,-0.68555 z m 3.90234,0.68555 c 1.25403,0.31329 2.46745,0.70307 3.65625,1.14258 -1.18858,-0.43957 -2.40238,-0.82925 -3.65625,-1.14258 z m -5.07813,2.56836 c -4.26178,0.11872 -8.69406,1.11487 -13.48242,3.70117 -0.19871,10.27757 3.75686,17.49111 9.57813,22.43945 5.9595,5.06593 14.02335,7.61329 21.33203,7.61329 7.28245,0 15.37975,-2.637 21.36328,-7.75977 5.98352,-5.12277 9.98824,-12.5678 9.5332,-23.00977 -0.002,-0.0521 -0.011,-0.10957 -0.0137,-0.1621 -6.83391,2.8662 -12.3945,3.72703 -17.19922,3.43359 -4.61505,-0.28174 -8.518,-1.62235 -12.19531,-3.20703 l -2.92773,-0.66797 c -5.31119,-1.23554 -10.50885,-2.53351 -15.98829,-2.38086 z"
         transform="scale(0.26458333)"
         id="path5281"
         inkscape:connector-curvature="0" />
      <path
         style="opacity:0.81400003;fill:none;fill-opacity:1;fill-rule:nonzero;stroke:#0c0d62;stroke-width:1.61390483;stroke-linecap:round;stroke-linejoin:miter;stroke-miterlimit:4;stroke-dasharray:none;stroke-dashoffset:0;stroke-opacity:1"
         d="m 65.856041,141.16785 c 0.131898,-5.84943 5.453512,-8.66026 8.982301,-15.86436 3.118945,7.11574 8.963958,10.52144 8.982301,15.86436 0.01834,5.34292 -4.748005,8.9823 -8.982301,8.9823 -4.234297,0 -9.114199,-3.13287 -8.982301,-8.9823 z"
         id="path5283"
         inkscape:connector-curvature="0"
         sodipodi:nodetypes="zczsz" />
      <circle
         r="0.96728849"
         cy="-148.56006"
         cx="-60.328423"
         id="circle5285"
         style="opacity:1;fill:#ffffff;fill-opacity:0.54773865;fill-rule:nonzero;stroke:none;stroke-width:0.43088299;stroke-linecap:round;stroke-linejoin:round;stroke-miterlimit:4;stroke-dasharray:none;stroke-dashoffset:0;stroke-opacity:1"
         transform="rotate(175.10678)" />
      <circle
         style="opacity:1;fill:#ffffff;fill-opacity:0.54773865;fill-rule:nonzero;stroke:none;stroke-width:0.17882699;stroke-linecap:round;stroke-linejoin:round;stroke-miterlimit:4;stroke-dasharray:none;stroke-dashoffset:0;stroke-opacity:1"
         id="circle5287"
         cx="-60.195969"
         cy="-151.19528"
         r="0.40144837"
         transform="rotate(175.10678)" />
      <circle
         r="0.78148198"
         cy="-150.0988"
         cx="-58.352505"
         id="circle5289"
         style="opacity:1;fill:#ffffff;fill-opacity:0.54773865;fill-rule:nonzero;stroke:none;stroke-width:0.3481147;stroke-linecap:round;stroke-linejoin:round;stroke-miterlimit:4;stroke-dasharray:none;stroke-dashoffset:0;stroke-opacity:1"
         transform="rotate(175.10678)" />
      <g
         id="g5295"
         style="fill:#000609;fill-opacity:0.26111115">
        <path
           transform="scale(0.26458333)"
           sodipodi:nodetypes="ccccccccccc"
           inkscape:connector-curvature="0"
           id="path5291"
           d="m 263.4043,527.09766 c -3.22672,0.0784 -6.91037,0.61256 -11.04152,2.17149 -0.15973,1.48445 -0.35923,2.90801 -0.4077,4.17812 -0.009,0.24754 -0.005,0.48444 -0.01,0.72851 10.94482,-5.91155 20.0286,-3.51682 29.47071,-1.32031 l 4.49214,1.02509 c -0.48865,-0.22216 -4.28534,-1.57196 -4.76949,-1.79658 -4.63766,-2.15157 -9.12329,-4.32046 -14.53515,-4.86328 -0.60101,-0.0601 -1.21166,-0.101 -1.8379,-0.11914 -0.44644,-0.0129 -0.90036,-0.0151 -1.36132,-0.004 z"
           style="opacity:0.81400003;fill:#000609;fill-opacity:0.26111115;fill-rule:nonzero;stroke:none;stroke-width:6.07571268;stroke-linecap:round;stroke-linejoin:miter;stroke-miterlimit:4;stroke-dasharray:none;stroke-dashoffset:0;stroke-opacity:1" />
        <path
           sodipodi:nodetypes="cccccc"
           inkscape:connector-curvature="0"
           transform="scale(0.26458333)"
           id="path5293"
           d="m 313.55078,530.3418 c -11.31415,6.18322 -20.48097,5.10201 -29.16211,3.20117 3.66411,1.57612 7.55429,2.90692 12.15039,3.1875 4.7771,0.29175 10.42722,-0.60147 17.20732,-3.42829 0.01,-0.33414 -0.009,-0.61441 -0.0101,-0.95257 -0.002,-0.67516 -0.13044,-1.34973 -0.18554,-2.00781 z"
           style="color:#000000;font-style:normal;font-variant:normal;font-weight:normal;font-stretch:normal;font-size:medium;line-height:normal;font-family:sans-serif;font-variant-ligatures:normal;font-variant-position:normal;font-variant-caps:normal;font-variant-numeric:normal;font-variant-alternates:normal;font-feature-settings:normal;text-indent:0;text-align:start;text-decoration:none;text-decoration-line:none;text-decoration-style:solid;text-decoration-color:#000000;letter-spacing:normal;word-spacing:normal;text-transform:none;writing-mode:lr-tb;direction:ltr;text-orientation:mixed;dominant-baseline:auto;baseline-shift:baseline;text-anchor:start;white-space:normal;shape-padding:0;clip-rule:nonzero;display:inline;overflow:visible;visibility:visible;opacity:1;isolation:auto;mix-blend-mode:normal;color-interpolation:sRGB;color-interpolation-filters:linearRGB;solid-color:#000000;solid-opacity:1;vector-effect:none;fill:#000609;fill-opacity:0.26111115;fill-rule:evenodd;stroke:none;stroke-width:0.10200001;stroke-linecap:butt;stroke-linejoin:miter;stroke-miterlimit:4;stroke-dasharray:none;stroke-dashoffset:0;stroke-opacity:1;color-rendering:auto;image-rendering:auto;shape-rendering:auto;text-rendering:auto;enable-background:accumulate" />
      </g>
    </g>
  </g>
</svg>
